<svg version="1.1" id="Layer_1" xmlns="http://www.w3.org/2000/svg" xmlns:xlink="http://www.w3.org/1999/xlink" x="0px" y="0px"
	 width="100%" viewBox="0 0 396 99" enable-background="new 0 0 396 99" xml:space="preserve">
<path fill="#FFFFFF" opacity="1.000000" stroke="none" 
	d="
M71.000000,100.000000 
	C66.643097,100.000000 62.286201,100.000000 57.464653,99.536621 
	C57.000000,95.805641 57.000000,92.538040 57.000000,88.925598 
	C42.451176,88.925598 28.399122,88.925598 14.000000,88.925598 
	C14.000000,74.137581 14.000000,59.712708 14.000000,45.287838 
	C14.000000,30.882502 14.000000,16.477165 14.000000,2.621565 
	C10.896852,1.992570 8.448426,1.496285 6.000000,1.000000 
	C38.354229,1.000000 70.708458,1.000000 103.424057,1.374963 
	C97.358002,20.873652 90.930565,39.997375 84.542877,59.002827 
	C77.615448,56.075703 71.174301,53.354050 64.737793,50.634357 
	C62.963619,54.920734 61.402962,58.691261 59.681618,62.849991 
	C64.954666,65.336472 69.688477,68.236710 74.829330,69.788475 
	C79.203651,71.108871 79.620552,72.590973 78.165306,76.629311 
	C75.406151,84.285950 73.348854,92.195503 71.000000,100.000000 
z"/>
<path fill="#000000" opacity="1.000000" stroke="none" 
	d="
M286.000000,100.000000 
	C281.975464,100.000000 277.950897,100.000000 273.355438,99.638260 
	C259.668182,95.599075 249.713348,87.797821 244.243805,75.357071 
	C239.645126,64.897209 238.430832,53.905312 239.756271,42.202728 
	C241.859070,23.636909 250.296936,10.465276 267.534668,3.051567 
	C268.476349,2.646554 269.183624,1.696399 270.000000,1.000000 
	C276.354401,1.000000 282.708801,1.000000 289.656128,1.375852 
	C306.930145,4.606967 316.964569,15.863776 321.863495,30.525578 
	C325.788086,42.271309 325.889954,54.595421 322.873627,66.575478 
	C319.478455,80.060196 311.866577,90.614403 298.511749,96.034401 
	C294.470367,97.674583 290.177612,98.695450 286.000000,100.000000 
M254.001572,58.111851 
	C254.335739,59.850838 254.601196,61.606407 255.016251,63.325867 
	C256.591370,69.851242 259.053589,76.140038 264.178802,80.546104 
	C280.820099,94.852318 299.669525,87.090645 306.535706,70.355614 
	C312.410828,56.036129 312.318329,40.679436 304.706696,26.530956 
	C300.538513,18.783045 293.776611,13.861852 284.552704,12.973665 
	C273.143646,11.875070 265.120728,17.113857 259.300232,26.327728 
	C253.296448,35.831779 253.781631,46.552444 254.001572,58.111851 
z"/>
<path fill="#000000" opacity="1.000000" stroke="none" 
	d="
M71.464645,100.000000 
	C73.348854,92.195503 75.406151,84.285950 78.165306,76.629311 
	C79.620552,72.590973 79.203651,71.108871 74.829330,69.788475 
	C69.688477,68.236710 64.954666,65.336472 59.681618,62.849991 
	C61.402962,58.691261 62.963619,54.920734 64.737793,50.634357 
	C71.174301,53.354050 77.615448,56.075703 84.542877,59.002827 
	C90.930565,39.997375 97.358002,20.873652 103.892715,1.374963 
	C104.000000,1.000000 104.500000,1.000000 104.851562,1.355493 
	C106.468750,1.473990 107.734375,1.236995 109.000000,1.000000 
	C109.000000,1.000000 109.500000,1.000000 109.909515,1.403225 
	C113.454880,1.806451 116.590721,1.806451 119.519005,1.806451 
	C120.903992,6.149569 122.047050,9.982876 123.344543,13.763174 
	C133.212708,42.514614 143.111053,71.255692 153.000000,100.000000 
	C148.643097,100.000000 144.286194,100.000000 139.461639,99.606995 
	C130.012650,73.174522 121.031296,47.135044 111.656654,19.955296 
	C108.797974,28.436275 106.390121,35.565277 103.992256,42.697636 
	C101.558586,49.936478 99.134773,57.178627 96.764267,64.247513 
	C103.932182,67.329834 110.636497,69.971817 117.129478,73.058357 
	C128.379761,78.406326 128.324860,78.521812 122.325378,90.123314 
	C112.366112,85.836357 102.386406,81.540596 91.951645,77.048958 
	C89.634583,84.698807 87.317291,92.349403 85.000000,100.000000 
	C80.643097,100.000000 76.286201,100.000000 71.464645,100.000000 
z"/>
<path fill="#000000" opacity="1.000000" stroke="none" 
	d="
M165.000000,1.000000 
	C178.020889,1.000000 191.041794,1.000000 204.645660,1.367093 
	C220.410110,5.670826 224.003677,12.788677 225.845856,23.432920 
	C227.017044,30.200090 225.593231,36.842880 221.698532,42.966175 
	C217.758743,49.160343 211.592560,51.756626 205.802063,54.386433 
	C207.838608,56.264263 210.374252,57.881435 211.930771,60.165768 
	C217.804321,68.785736 223.424942,77.581177 229.006653,86.395538 
	C231.819031,90.836693 234.344696,95.459396 237.000000,100.000000 
	C232.310745,100.000000 227.621490,100.000000 222.381165,99.650208 
	C215.546066,89.028702 209.150482,78.823128 203.010361,68.466118 
	C197.219437,58.698135 188.254074,57.400528 178.000000,58.220615 
	C178.000000,72.399124 178.000000,86.199562 178.000000,100.000000 
	C173.975449,100.000000 169.950912,100.000000 165.463181,99.531342 
	C165.000000,66.375122 165.000000,33.687561 165.000000,1.000000 
M178.000000,36.478439 
	C178.000000,39.908150 178.000000,43.337856 178.000000,47.000000 
	C182.657501,47.000000 186.832291,47.401035 190.893463,46.893291 
	C195.445709,46.324150 200.334991,45.774651 204.289825,43.708599 
	C210.781204,40.317429 213.488464,33.885063 212.875397,26.732740 
	C212.290848,19.913424 207.858215,14.796718 201.489822,13.440001 
	C193.944122,11.832469 185.998428,12.102616 178.000000,11.543132 
	C178.000000,20.238070 178.000000,27.860500 178.000000,36.478439 
z"/>
<path fill="#000000" opacity="1.000000" stroke="none" 
	d="
M397.000000,45.000000 
	C397.000000,49.024544 397.000000,53.049088 396.531342,57.536816 
	C380.834839,58.000000 365.607025,58.000000 350.346619,58.000000 
	C350.346619,68.245209 350.346619,78.076164 350.346619,88.000000 
	C366.128662,88.000000 381.564331,88.000000 397.000000,88.000000 
	C397.000000,91.975533 397.000000,95.951073 397.000000,100.000000 
	C377.312500,100.000000 357.624908,100.000000 337.468658,99.531342 
	C337.000000,68.267677 336.982361,37.472637 337.042816,6.677748 
	C337.046509,4.784546 337.666656,2.892554 338.000000,0.999999 
	C340.041656,1.000000 342.083344,1.000000 344.729736,1.408797 
	C362.556305,1.878396 379.778168,1.939198 397.000000,2.000000 
	C397.000000,5.692909 397.000000,9.385818 396.531342,13.539364 
	C380.834503,14.000000 365.606323,14.000000 350.346100,14.000000 
	C350.346100,24.579075 350.346100,34.742413 350.346100,45.000000 
	C366.128021,45.000000 381.563995,45.000000 397.000000,45.000000 
z"/>
<path fill="#FFFFFF" opacity="1.000000" stroke="none" 
	d="
M164.531342,1.000000 
	C165.000000,33.687561 165.000000,66.375122 165.000000,99.531342 
	C161.307098,100.000000 157.614182,100.000000 153.460648,100.000000 
	C143.111053,71.255692 133.212708,42.514614 123.344543,13.763174 
	C122.047050,9.982876 120.903992,6.149569 119.519005,1.806451 
	C116.590721,1.806451 113.454880,1.806451 110.159515,1.403225 
	C128.020889,1.000000 146.041794,1.000000 164.531342,1.000000 
z"/>
<path fill="#FFFFFF" opacity="1.000000" stroke="none" 
	d="
M237.468658,100.000000 
	C234.344696,95.459396 231.819031,90.836693 229.006653,86.395538 
	C223.424942,77.581177 217.804321,68.785736 211.930771,60.165768 
	C210.374252,57.881435 207.838608,56.264263 205.802063,54.386433 
	C211.592560,51.756626 217.758743,49.160343 221.698532,42.966175 
	C225.593231,36.842880 227.017044,30.200090 225.845856,23.432920 
	C224.003677,12.788677 220.410110,5.670826 205.114319,1.367093 
	C226.354233,1.000000 247.708450,1.000000 269.531342,1.000000 
	C269.183624,1.696399 268.476349,2.646554 267.534668,3.051567 
	C250.296936,10.465276 241.859070,23.636909 239.756271,42.202728 
	C238.430832,53.905312 239.645126,64.897209 244.243805,75.357071 
	C249.713348,87.797821 259.668182,95.599075 272.892273,99.638260 
	C261.312439,100.000000 249.624878,100.000000 237.468658,100.000000 
z"/>
<path fill="#FFFFFF" opacity="1.000000" stroke="none" 
	d="
M337.531342,0.999999 
	C337.666656,2.892554 337.046509,4.784546 337.042816,6.677748 
	C336.982361,37.472637 337.000000,68.267677 337.000000,99.531342 
	C320.312439,100.000000 303.624878,100.000000 286.468658,100.000000 
	C290.177612,98.695450 294.470367,97.674583 298.511749,96.034401 
	C311.866577,90.614403 319.478455,80.060196 322.873627,66.575478 
	C325.889954,54.595421 325.788086,42.271309 321.863495,30.525578 
	C316.964569,15.863776 306.930145,4.606967 290.124542,1.375852 
	C305.687561,1.000000 321.375122,1.000000 337.531342,0.999999 
z"/>
<path fill="#000000" opacity="1.000000" stroke="none" 
	d="
M5.500038,1.000000 
	C8.448426,1.496285 10.896852,1.992570 14.000000,2.621565 
	C14.000000,16.477165 14.000000,30.882502 14.000000,45.287838 
	C14.000000,59.712708 14.000000,74.137581 14.000000,88.925598 
	C28.399122,88.925598 42.451176,88.925598 57.000000,88.925598 
	C57.000000,92.538040 57.000000,95.805641 57.000000,99.536621 
	C38.391838,100.000000 19.783678,100.000000 1.087759,100.000000 
	C1.087759,67.000198 1.087759,34.000111 1.087759,1.000000 
	C2.341774,1.000000 3.670925,1.000000 5.500038,1.000000 
z"/>
<path fill="#FFFFFF" opacity="1.000000" stroke="none" 
	d="
M85.468658,100.000000 
	C87.317291,92.349403 89.634583,84.698807 91.951645,77.048958 
	C102.386406,81.540596 112.366112,85.836357 122.325378,90.123314 
	C128.324860,78.521812 128.379761,78.406326 117.129478,73.058357 
	C110.636497,69.971817 103.932182,67.329834 96.764267,64.247513 
	C99.134773,57.178627 101.558586,49.936478 103.992256,42.697636 
	C106.390121,35.565277 108.797974,28.436275 111.656654,19.955296 
	C121.031296,47.135044 130.012650,73.174522 138.996994,99.606995 
	C121.312439,100.000000 103.624878,100.000000 85.468658,100.000000 
z"/>
<path fill="#FFFFFF" opacity="1.000000" stroke="none" 
	d="
M397.000000,44.531342 
	C381.563995,45.000000 366.128021,45.000000 350.346100,45.000000 
	C350.346100,34.742413 350.346100,24.579075 350.346100,14.000000 
	C365.606323,14.000000 380.834503,14.000000 396.531342,14.000000 
	C397.000000,24.020895 397.000000,34.041790 397.000000,44.531342 
z"/>
<path fill="#FFFFFF" opacity="1.000000" stroke="none" 
	d="
M397.000000,87.531342 
	C381.564331,88.000000 366.128662,88.000000 350.346619,88.000000 
	C350.346619,78.076164 350.346619,68.245209 350.346619,58.000000 
	C365.607025,58.000000 380.834839,58.000000 396.531342,58.000000 
	C397.000000,67.687561 397.000000,77.375122 397.000000,87.531342 
z"/>
<path fill="#FFFFFF" opacity="1.000000" stroke="none" 
	d="
M178.468658,100.000000 
	C178.000000,86.199562 178.000000,72.399124 178.000000,58.220615 
	C188.254074,57.400528 197.219437,58.698135 203.010361,68.466118 
	C209.150482,78.823128 215.546066,89.028702 221.915054,99.650208 
	C207.645767,100.000000 193.291550,100.000000 178.468658,100.000000 
z"/>
<path fill="#FFFFFF" opacity="1.000000" stroke="none" 
	d="
M397.000000,1.500000 
	C379.778168,1.939198 362.556305,1.878396 345.167236,1.408797 
	C362.333344,1.000000 379.666656,1.000000 397.000000,1.500000 
z"/>
<path fill="#FFFFFF" opacity="1.000000" stroke="none" 
	d="
M108.600021,1.000000 
	C107.734375,1.236995 106.468750,1.473990 105.101562,1.355493 
	C106.066681,1.000000 107.133362,1.000000 108.600021,1.000000 
z"/>
<path fill="#FFFFFF" opacity="1.000000" stroke="none" 
	d="
M254.000824,57.645927 
	C253.781631,46.552444 253.296448,35.831779 259.300232,26.327728 
	C265.120728,17.113857 273.143646,11.875070 284.552704,12.973665 
	C293.776611,13.861852 300.538513,18.783045 304.706696,26.530956 
	C312.318329,40.679436 312.410828,56.036129 306.535706,70.355614 
	C299.669525,87.090645 280.820099,94.852318 264.178802,80.546104 
	C259.053589,76.140038 256.591370,69.851242 255.016251,63.325867 
	C254.601196,61.606407 254.335739,59.850838 254.000824,57.645927 
z"/>
<path fill="#FFFFFF" opacity="1.000000" stroke="none" 
	d="
M178.000000,35.980686 
	C178.000000,27.860500 178.000000,20.238070 178.000000,11.543132 
	C185.998428,12.102616 193.944122,11.832469 201.489822,13.440001 
	C207.858215,14.796718 212.290848,19.913424 212.875397,26.732740 
	C213.488464,33.885063 210.781204,40.317429 204.289825,43.708599 
	C200.334991,45.774651 195.445709,46.324150 190.893463,46.893291 
	C186.832291,47.401035 182.657501,47.000000 178.000000,47.000000 
	C178.000000,43.337856 178.000000,39.908150 178.000000,35.980686 
z"/>
</svg>